#!OML:ASF H:\ManfredObstacles\Project 1\Capture day 1\Session 1\Male.ASF
:FULLY-SPECIFIED
:DEGREES
405
root 6.68592 16.56 -6.68962 -160.975 21.5257 -173.125
lowerback -12.5556 -2.9044 4.4987
upperback 0.877882 -4.68751 3.41461
thorax 7.92069 -2.10183 0.216263
lowerneck 3.84871 -5.4273 -7.31349
upperneck -15.9997 -5.40078 14.3644
head -4.71223 -2.87902 5.96862
rclavicle 2.07606e-014 8.10048e-015
rhumerus -29.3315 -11.4528 -82.8368
rradius 29.334
rwrist 27.6202
rhand 0.424815 -5.67381
rfingers 7.12502
rthumb 25.9972 -33.9155
lclavicle 2.07606e-014 8.10048e-015
lhumerus -20.4413 1.53444 93.2259
lradius 24.908
lwrist -22.3835
lhand -6.55182 10.2469
lfingers 7.12502
lthumb 19.3018 39.309
rfemur -34.1229 -5.26009 29.9043
rtibia 24.3007
rfoot -6.32893 12.8214
rtoes 19.0992
lfemur 2.67431 -8.28048 -7.38055
ltibia 6.47295
lfoot 5.03161 -10.9507
ltoes 16.5387
406
root 6.69185 16.5594 -6.69716 -160.973 21.556 -173.027
lowerback -12.6089 -2.85765 4.55031
upperback 0.900253 -4.63828 3.44728
thorax 7.97531 -2.0737 0.228399
lowerneck 1.85504 -5.35063 -6.07177
upperneck -13.8442 -5.60713 12.5552
head -3.81844 -2.89115 5.0507
rclavicle -2.01766e-014 -2.45499e-014
rhumerus -29.3534 -11.9671 -82.639
rradius 28.87
rwrist 28.1305
rhand 0.232331 -5.5374
rfingers 7.12502
rthumb 25.8129 -33.806
lclavicle -2.01766e-014 -2.45499e-014
lhumerus -20.4853 1.14249 93.3399
lradius 25.0026
lwrist -22.0251
lhand -6.4803 10.2936
lfingers 7.12502
lthumb 19.3706 39.3488
rfemur -34.0175 -5.08465 29.9545
rtibia 24.2408
rfoot -6.36657 12.6693
rtoes 18.7197
lfemur 2.74343 -8.23157 -7.27237
ltibia 6.45353
lfoot 5.08644 -10.9571
ltoes 16.3006
407
root 6.67861 16.5651 -6.69982 -161.11 21.4617 -173.255
lowerback -12.4592 -2.87565 4.54189
upperback 0.831205 -4.64254 3.35914
thorax 7.80782 -2.08082 0.147755
lowerneck 4.37881 -5.37294 -7.38259
upperneck -16.3688 -5.2928 14.5289
head -4.91977 -2.8514 6.06459
rclavicle 1.00187e-013 -3.84648e-014
rhumerus -29.4728 -12.4826 -82.4312
rradius 28.4999
rwrist 28.5124
rhand 0.275523 -5.64728
rfingers 7.12502
rthumb 25.8543 -33.9098
lclavicle 1.00187e-013 -3.84648e-014
lhumerus -20.6604 0.85766 93.3807
lradius 25.0688
lwrist -21.7734
lhand -6.27652 10.3539
lfingers 7.12502
lthumb 19.5665 39.3893
rfemur -33.9722 -5.53296 29.8164
rtibia 24.2017
rfoot -6.33411 12.8837
rtoes 18.234
lfemur 2.78403 -8.39716 -7.50868
ltibia 6.359
lfoot 5.33003 -10.9203
ltoes 16.3732
408
root 6.67415 16.5674 -6.70357 -161.126 21.4806 -173.294
lowerback -12.4584 -2.85808 4.55601
upperback 0.792681 -4.61687 3.34043
thorax 7.76358 -2.06861 0.125675
lowerneck 2.21527 -5.43349 -6.05537
upperneck -14.2101 -5.66397 12.7672
head -3.97558 -2.94081 5.13854
rclavicle -1.4925e-013 8.33902e-014
rhumerus -29.6256 -12.7584 -82.2637
rradius 28.2442
rwrist 28.4664
rhand 0.0621154 -5.78445
rfingers 7.12502
rthumb 25.6499 -34.0766
lclavicle -1.4925e-013 8.33902e-014
lhumerus -20.8359 0.912444 93.333
lradius 25.0751
lwrist -21.8944
lhand -6.11205 10.3726
lfingers 7.12502
lthumb 19.7246 39.3918
rfemur -33.9493 -5.52383 29.7475
rtibia 24.1811
rfoot -6.38828 12.7976
rtoes 17.9551
lfemur 2.92849 -8.39386 -7.55217
ltibia 6.06437
lfoot 5.68438 -10.9022
ltoes 16.4991
409
root 6.67039 16.5711 -6.70905 -161.16 21.5117 -173.326
lowerback -12.4597 -2.85819 4.54684
upperback 0.773172 -4.61459 3.36055
thorax 7.74578 -2.06827 0.152931
lowerneck 2.25023 -5.37488 -6.24253
upperneck -14.1687 -5.5872 12.9054
head -3.96461 -2.90208 5.21128
rclavicle -7.25191e-014 5.9039e-014
rhumerus -29.8004 -13.0066 -82.02
rradius 28.0777
rwrist 28.4024
rhand 0.0549366 -5.97302
rfingers 7.12502
rthumb 25.643 -34.2662
lclavicle -7.25191e-014 5.9039e-014
lhumerus -20.9381 1.1404 93.2729
lradius 24.8645
lwrist -22.1974
lhand -6.05772 10.3105
lfingers 7.12502
lthumb 19.7769 39.3243
rfemur -33.922 -5.60255 29.7165
rtibia 24.1925
rfoot -6.44701 12.8597
rtoes 17.4865
lfemur 3.215 -8.38353 -7.59141
ltibia 5.57003
lfoot 6.08064 -10.8332
ltoes 16.3518
410
root 6.66573 16.576 -6.71727 -161.207 21.5973 -173.427
lowerback -12.5438 -2.86428 4.43743
upperback 0.782857 -4.6153 3.3976
thorax 7.8159 -2.07182 0.248255
lowerneck 2.25161 -5.35832 -6.37547
upperneck -14.2026 -5.56349 12.964
head -3.97031 -2.88682 5.25246
rclavicle -1.09332e-014 -2.60408e-014
rhumerus -29.8649 -13.3733 -81.7055
rradius 27.9386
rwrist 28.7364
rhand 0.33474 -6.28916
rfingers 7.12502
rthumb 25.911 -34.5435
lclavicle -1.09332e-014 -2.60408e-014
lhumerus -20.9813 1.34499 93.2505
lradius 24.513
lwrist -22.378
lhand -6.13124 10.2508
lfingers 7.12502
lthumb 19.7062 39.2719
rfemur -33.8991 -5.71703 29.6176
rtibia 24.189
rfoot -6.43554 13.0023
rtoes 17.4832
lfemur 3.4954 -8.34005 -7.72104
ltibia 5.08821
lfoot 6.50755 -10.6662
ltoes 16.5071
411
root 6.65827 16.5777 -6.7226 -161.25 21.7631 -173.502
lowerback -12.6654 -2.8537 4.34792
upperback 0.863693 -4.60449 3.4081
thorax 7.98091 -2.06685 0.303082
lowerneck 2.2782 -5.3969 -6.32028
upperneck -14.4451 -5.5797 12.9681
head -4.04735 -2.89624 5.25352
rclavicle -2.40529e-014 -3.22031e-014
rhumerus -29.7032 -13.851 -81.452
rradius 27.6684
rwrist 29.3625
rhand 0.319529 -6.27446
rfingers 7.12502
rthumb 25.8964 -34.5309
lclavicle -2.40529e-014 -3.22031e-014
lhumerus -20.9689 1.81949 93.1002
lradius 24.1686
lwrist -22.8305
lhand -6.12491 10.2181
lfingers 7.12502
lthumb 19.7123 39.2386
rfemur -33.8608 -5.61483 29.4627
rtibia 24.1708
rfoot -6.34979 13.0024
rtoes 18.1548
lfemur 3.81684 -8.21582 -7.86337
ltibia 4.58306
lfoot 6.95556 -10.4872
ltoes 16.9965
412
root 6.6494 16.5781 -6.72621 -161.229 21.9383 -173.51
lowerback -12.7844 -2.88876 4.32182
upperback 0.904058 -4.65936 3.40355
thorax 8.0932 -2.09193 0.295362
lowerneck 4.24797 -5.33293 -7.22306
upperneck -16.5214 -5.19679 14.4478
head -4.96283 -2.80035 6.00989
rclavicle 2.96686e-014 -6.19214e-014
rhumerus -29.4969 -14.3732 -81.2442
rradius 27.1311
rwrist 30.139
rhand 0.14728 -5.78605
rfingers 7.12502
rthumb 25.7314 -34.0665
lclavicle 2.96686e-014 -6.19214e-014
lhumerus -21.0657 2.65891 92.7419
lradius 23.8255
lwrist -23.514
lhand -6.04795 10.2527
lfingers 7.12502
lthumb 19.7863 39.2656
rfemur -33.8707 -5.5182 29.4002
rtibia 24.1209
rfoot -6.27501 13.0279
rtoes 18.1267
lfemur 4.01533 -8.05372 -7.93519
ltibia 4.24205
lfoot 7.30491 -10.4259
ltoes 17.4096
413
root 6.64068 16.5804 -6.73038 -161.165 22.1689 -173.484
lowerback -12.8033 -2.95659 4.29866
upperback 0.79241 -4.73874 3.41019
thorax 7.98383 -2.13393 0.301689
lowerneck 2.41881 -5.14617 -6.07265
upperneck -14.3151 -5.26122 12.8194
head -4.07864 -2.75205 5.16017
rclavicle 4.01297e-014 1.18277e-014
rhumerus -29.5647 -14.9347 -80.984
rradius 26.6141
rwrist 31.0078
rhand 0.270736 -5.47553
rfingers 7.12502
rthumb 25.8497 -33.7388
lclavicle 4.01297e-014 1.18277e-014
lhumerus -21.4222 3.44322 92.3078
lradius 23.3962
lwrist -23.8978
lhand -6.15599 10.3292
lfingers 7.12502
lthumb 19.6824 39.3528
rfemur -33.891 -5.44893 29.3924
rtibia 24.025
rfoot -6.17441 13.1393
rtoes 17.7768
lfemur 3.97154 -7.82106 -7.97597
ltibia 4.31517
lfoot 7.4592 -10.5712
ltoes 17.2579
414
root 6.63336 16.584 -6.7339 -161.109 22.4826 -173.475
lowerback -12.7753 -2.94943 4.25896
upperback 0.657199 -4.71005 3.41836
thorax 7.82593 -2.12522 0.342336
lowerneck 3.91222 -5.13197 -6.75594
upperneck -15.6471 -5.08586 13.7613
head -4.69579 -2.73184 5.66359
rclavicle 1.67725e-014 3.12092e-014
rhumerus -29.8084 -15.7147 -80.567
rradius 26.3776
rwrist 31.9433
rhand 0.527302 -5.45445
rfingers 7.12502
rthumb 26.0953 -33.6817
lclavicle 1.67725e-014 3.12092e-014
lhumerus -21.8044 4.21059 91.9075
lradius 22.8987
lwrist -24.3582
lhand -6.29398 10.3033
lfingers 7.12502
lthumb 19.5497 39.3404
rfemur -33.8854 -5.29225 29.3336
rtibia 23.9017
rfoot -5.98811 13.2472
rtoes 17.8739
lfemur 3.79168 -7.51449 -8.05518
ltibia 4.68768
lfoot 7.3983 -10.9367
ltoes 16.5046
415
root 6.62614 16.5875 -6.73514 -161.069 22.7391 -173.477
lowerback -12.7826 -2.93796 4.22625
upperback 0.607922 -4.68705 3.44309
thorax 7.78201 -2.11641 0.391825
lowerneck 4.07882 -5.20398 -6.85625
upperneck -15.8893 -5.17391 13.7897
head -4.78383 -2.77791 5.70684
rclavicle -1.84373e-014 -5.46658e-015
rhumerus -29.8969 -16.2095 -80.2223
rradius 26.1594
rwrist 32.3889
rhand 0.395484 -5.25452
rfingers 7.12502
rthumb 25.9691 -33.5003
lclavicle -1.84373e-014 -5.46658e-015
lhumerus -22.0457 5.27676 91.4756
lradius 22.3885
lwrist -25.2885
lhand -6.29593 10.2207
lfingers 7.12502
lthumb 19.5479 39.258
rfemur -33.8786 -5.17233 29.2848
rtibia 23.7733
rfoot -5.8319 13.3198
rtoes 17.9156
lfemur 3.55539 -7.26554 -8.1197
ltibia 5.15309
lfoot 7.31017 -11.277
ltoes 16.046
416
root 6.61853 16.59 -6.73533 -161.023 22.9558 -173.517
lowerback -12.8649 -2.98474 4.12763
upperback 0.59334 -4.74134 3.4853
thorax 7.82397 -2.14626 0.477186
lowerneck 3.92399 -5.22409 -6.73452
upperneck -15.8447 -5.23246 13.5093
head -4.75218 -2.79345 5.5916
rclavicle -8.32411e-015 1.07344e-014
rhumerus -29.8022 -16.3197 -80.0366
rradius 25.8072
rwrist 32.522
rhand 0.218294 -5.1072
rfingers 7.12502
rthumb 25.7994 -33.3777
lclavicle -8.32411e-015 1.07344e-014
lhumerus -22.2458 6.44214 90.995
lradius 21.8764
lwrist -26.3095
lhand -6.0528 10.1365
lfingers 7.12502
lthumb 19.7816 39.1499
rfemur -33.8992 -4.99547 29.1776
rtibia 23.6637
rfoot -5.7429 13.2714
rtoes 18.0734
lfemur 3.29264 -7.06026 -8.20759
ltibia 5.56773
lfoot 7.44361 -11.3785
ltoes 16.4776
417
root 6.61191 16.5912 -6.73511 -160.984 23.183 -173.544
lowerback -12.9779 -2.98015 4.06498
upperback 0.600128 -4.73421 3.48239
thorax 7.90044 -2.14369 0.50414
lowerneck 3.92444 -5.20179 -6.66646
upperneck -15.94 -5.19458 13.4251
head -4.7907 -2.77306 5.55579
rclavicle -1.2101e-014 1.94809e-014
rhumerus -29.7841 -16.6095 -79.86
rradius 25.5944
rwrist 32.8619
rhand 0.259475 -5.20289
rfingers 7.12502
rthumb 25.8389 -33.4677
lclavicle -1.2101e-014 1.94809e-014
lhumerus -22.4357 7.23639 90.5262
lradius 21.3768
lwrist -27.1768
lhand -5.8055 10.101
lfingers 7.12502
lthumb 20.0193 39.0897
rfemur -33.9198 -4.83623 29.0854
rtibia 23.5793
rfoot -5.67304 13.2771
rtoes 18.1858
lfemur 3.08901 -6.84488 -8.29427
ltibia 5.89239
lfoot 7.58245 -11.4084
ltoes 17.1173
418
root 6.60341 16.5927 -6.73358 -160.985 23.434 -173.596
lowerback -13.0728 -2.95754 4.02024
upperback 0.666551 -4.70832 3.43125
thorax 8.02574 -2.13059 0.473035
lowerneck 3.60901 -5.17002 -6.45534
upperneck -15.7873 -5.15474 13.2352
head -4.70831 -2.7416 5.44221
rclavicle 3.87879e-014 -1.2921e-015
rhumerus -29.8592 -16.7431 -79.8437
rradius 25.7428
rwrist 32.8968
rhand 0.100471 -5.18762
rfingers 7.12502
rthumb 25.6866 -33.4745
lclavicle 3.87879e-014 -1.2921e-015
lhumerus -22.5199 7.85482 90.0401
lradius 20.858
lwrist -28.0408
lhand -5.96485 10.0871
lfingers 7.12502
lthumb 19.8661 39.0917
rfemur -33.934 -4.78084 28.9954
rtibia 23.5109
rfoot -5.58122 13.4241
rtoes 18.0823
lfemur 2.9845 -6.62169 -8.42703
ltibia 6.11805
lfoot 7.56966 -11.5816
ltoes 17.1169
